<?xml version="1.0" standalone="no"?>
<!DOCTYPE svg PUBLIC "-//W3C//DTD SVG 20010904//EN"
 "http://www.w3.org/TR/2001/REC-SVG-20010904/DTD/svg10.dtd">
<svg version="1.0" xmlns="http://www.w3.org/2000/svg"
 width="225.000000pt" height="225.000000pt" viewBox="0 0 225.000000 225.000000"
 preserveAspectRatio="xMidYMid meet">

<g transform="translate(0.000000,225.000000) scale(0.100000,-0.100000)"
fill="#000000" stroke="none">
<path d="M915 1916 c-590 -117 -799 -842 -358 -1246 115 -106 278 -178 410
-183 62 -2 68 0 68 18 0 17 -11 22 -75 32 -320 49 -536 271 -585 601 l-7 42
65 0 c46 0 66 4 70 14 9 24 -15 36 -76 36 l-58 0 6 48 c37 279 236 508 501
576 34 9 80 16 102 16 l41 0 3 -47 c3 -40 6 -48 23 -48 17 0 20 8 23 51 l3 50
64 -7 c147 -18 284 -89 396 -206 60 -62 62 -66 43 -79 -87 -63 -126 -131 -132
-234 -3 -64 -1 -83 20 -130 51 -115 143 -174 269 -175 98 0 175 36 230 109 45
59 59 104 59 190 0 111 -58 204 -158 253 -50 24 -68 28 -142 27 l-86 -1 -28
39 c-68 95 -247 209 -381 243 -87 22 -227 27 -310 11z"/>
<path d="M1230 1425 c-139 -139 -146 -145 -185 -145 -37 0 -47 6 -110 70 -71
71 -91 82 -102 54 -4 -11 17 -38 66 -88 65 -65 71 -75 71 -112 0 -61 44 -92
100 -73 36 13 50 36 50 81 0 29 17 50 146 179 104 104 145 152 141 163 -4 9
-12 16 -19 16 -7 0 -78 -65 -158 -145z m-162 -218 c4 -20 -25 -34 -40 -19 -15
15 -1 44 19 40 10 -2 19 -11 21 -21z"/>
<path d="M1145 996 c-16 -7 -43 -25 -58 -40 -54 -50 -88 -166 -53 -179 19 -8
32 10 40 56 8 44 53 99 96 117 40 17 120 8 153 -16 32 -23 57 -72 57 -112 0
-38 -28 -77 -210 -291 -80 -94 -145 -179 -145 -189 0 -15 18 -17 204 -20 208
-2 227 1 214 35 -4 10 -41 13 -169 13 -90 0 -164 2 -164 5 0 3 64 81 142 173
79 92 151 182 160 202 31 59 17 151 -30 203 -47 53 -166 74 -237 43z"/>
<path d="M1737 948 c-193 -271 -337 -485 -337 -500 0 -16 15 -18 183 -20 l182
-3 5 -50 c4 -42 8 -50 25 -50 17 0 21 8 25 50 l5 50 48 3 c32 2 50 8 54 19 8
21 -14 33 -64 33 l-43 0 0 265 c0 256 -1 265 -19 265 -13 0 -36 -22 -64 -62z
m33 -258 l0 -210 -146 0 c-80 0 -144 4 -142 9 4 10 282 410 286 411 1 0 2 -94
2 -210z"/>
</g>
</svg>
