<?xml version="1.0" standalone="no"?>
<!DOCTYPE svg PUBLIC "-//W3C//DTD SVG 20010904//EN"
 "http://www.w3.org/TR/2001/REC-SVG-20010904/DTD/svg10.dtd">
<svg version="1.0" xmlns="http://www.w3.org/2000/svg"
 width="135.000000pt" height="146.000000pt" viewBox="0 0 135.000000 146.000000"
 preserveAspectRatio="xMidYMid meet">

<g transform="translate(0.000000,146.000000) scale(0.100000,-0.100000)"
fill="#000000" stroke="none">
<path d="M667 1259 c-51 -12 -87 -32 -119 -66 -47 -49 -58 -91 -58 -217 l0
-115 -82 -3 -83 -3 0 -95 0 -95 83 -3 82 -3 0 -214 0 -215 110 0 110 0 0 215
0 214 82 3 82 3 7 35 c4 19 9 63 13 98 l6 62 -100 0 -100 0 0 90 c0 108 13
129 83 131 23 1 58 2 77 3 l35 1 3 93 3 92 -98 -1 c-54 -1 -115 -5 -136 -10z"/>
</g>
</svg>
