<?xml version="1.0" standalone="no"?>
<!DOCTYPE svg PUBLIC "-//W3C//DTD SVG 20010904//EN"
 "http://www.w3.org/TR/2001/REC-SVG-20010904/DTD/svg10.dtd">
<svg version="1.0" xmlns="http://www.w3.org/2000/svg"
 width="137.000000pt" height="126.000000pt" viewBox="0 0 137.000000 126.000000"
 preserveAspectRatio="xMidYMid meet">

<g transform="translate(0.000000,126.000000) scale(0.100000,-0.100000)"
fill="#000000" stroke="none">
<path d="M406 1090 c-93 -17 -188 -99 -217 -188 -8 -23 -14 -123 -17 -262 -5
-305 10 -374 97 -453 81 -73 76 -72 384 -75 313 -4 342 1 416 64 89 76 111
161 111 417 0 321 -34 410 -185 482 -36 17 -68 19 -290 21 -137 2 -272 -1
-299 -6z m552 -106 c53 -22 98 -69 112 -117 7 -28 10 -122 8 -282 -3 -274 -9
-294 -87 -350 l-43 -30 -273 0 -273 0 -43 30 c-26 18 -53 50 -68 80 -26 49
-26 51 -26 296 l0 246 30 48 c20 32 45 56 74 72 43 22 52 23 298 23 206 0 261
-3 291 -16z"/>
<path d="M913 918 c-54 -26 -30 -108 31 -108 35 0 49 11 60 47 5 17 1 29 -18
48 -27 27 -39 29 -73 13z"/>
<path d="M614 860 c-107 -25 -204 -149 -204 -260 0 -99 87 -222 176 -248 102
-30 207 -1 276 76 52 58 71 105 71 182 1 171 -152 290 -319 250z m154 -118
c42 -31 76 -103 69 -151 -11 -83 -84 -153 -160 -153 -58 0 -100 23 -137 74
-62 84 -22 209 80 251 31 13 117 1 148 -21z"/>
</g>
</svg>
