<svg width="323" height="409" viewBox="0 0 323 409" fill="none" xmlns="http://www.w3.org/2000/svg">
<g filter="url(#filter0_d_152_62)">
<path d="M30.8134 283.997H4.23608V324.568H34.9476L30.8134 283.997Z" fill="#F15324"/>
<path d="M28.4312 286.739L32.0064 321.827H6.88367V286.739H28.4312Z" stroke="#C5451E" stroke-width="5"/>
</g>
<g filter="url(#filter1_d_152_62)">
<path d="M315.587 285.094H287.483L283.816 321.279H315.587V285.094Z" fill="#F15324"/>
<path d="M312.939 287.835V318.538H286.756L289.867 287.835H312.939Z" stroke="#C5451E" stroke-width="5"/>
</g>
<path d="M87.2592 114.613C110.49 113.601 139.536 114.399 168.456 116.333C197.371 118.265 226.094 121.327 248.668 124.829C259.959 126.581 269.669 128.436 277.079 130.304C280.785 131.239 283.874 132.165 286.275 133.068C288.742 133.995 290.258 134.815 291.007 135.445C291.627 135.966 292.41 137.067 293.224 139.043C294.018 140.973 294.749 143.509 295.398 146.629C296.694 152.867 297.603 161.142 298.135 170.924C299.201 190.467 298.75 215.695 297.065 241.968C295.38 268.232 292.465 295.468 288.622 319.018C284.764 342.657 280.013 362.302 274.751 373.569C272.372 378.667 267.407 383.36 260.062 387.516C252.751 391.653 243.328 395.115 232.423 397.881C210.62 403.412 183.274 406.065 155.976 405.967C128.679 405.871 101.585 403.025 80.2918 397.647C69.6392 394.957 60.5384 391.656 53.6157 387.813C46.6348 383.938 42.2051 379.698 40.3563 375.309C36.1445 365.309 32.6689 345.865 30.2533 321.623C27.8501 297.505 26.526 268.993 26.4764 241.1C26.4269 213.198 27.6532 185.991 30.3298 164.472C31.669 153.705 33.3621 144.44 35.4129 137.251C37.4394 130.148 39.6907 125.541 41.9294 123.333L42.1455 123.128C43.2342 122.129 45.0606 121.093 47.7488 120.111C50.4026 119.142 53.727 118.287 57.6636 117.55C65.537 116.076 75.6367 115.12 87.2592 114.613Z" fill="#F6B527" stroke="#AA7707" stroke-width="5"/>
<path d="M68.3066 243.014C86.4378 243.014 101.136 227.795 101.136 209.022C101.136 190.249 86.4378 175.03 68.3066 175.03C50.1753 175.03 35.4771 190.249 35.4771 209.022C35.4771 227.795 50.1753 243.014 68.3066 243.014Z" fill="black"/>
<path d="M67.0432 292.563C75.6674 290.068 85.2649 291.069 95.5126 293.66C105.83 296.267 116.244 300.312 126.863 303.715C137.3 307.059 147.813 309.733 157.587 309.125L157.586 309.124C166.972 308.653 177.73 306.757 188.744 304.717C199.837 302.663 211.224 300.458 222.092 299.284C232.972 298.108 243.111 297.996 251.697 300.015C260.197 302.015 267.048 306.068 271.679 313.173C275.183 319.334 276.651 324.959 276.61 330.072C276.567 335.195 275.01 339.992 272.177 344.486C266.453 353.566 255.576 361.308 242.042 367.382C214.994 379.52 178.921 384.302 157.845 380.826L157.638 380.791H157.429C138.978 380.791 105.152 373.825 78.6025 361.457C65.3128 355.266 54.1608 347.863 47.6211 339.576C44.3749 335.462 42.3345 331.219 41.6527 326.866C40.979 322.563 41.6003 317.959 43.9714 313.006C50.6722 300.964 58.5567 295.018 67.0432 292.563Z" fill="white" stroke="#AA7707" stroke-width="5"/>
<path d="M197.328 45.0404C196.927 45.9675 196.288 47.1053 195.427 48.4798C193.525 51.5178 190.568 55.6527 188.448 59.7502C186.323 63.8566 184.587 68.714 185.619 73.5113C186.492 77.5644 189.187 80.9709 193.886 83.6658C192.853 84.774 192.007 85.8642 191.378 86.951C190.173 89.033 189.666 91.3039 190.408 93.6362C191.098 95.8039 192.723 97.5284 194.632 98.9934C195.966 100.016 197.589 101.023 199.455 102.05L190.825 115.24L138.296 114.215L135.261 97.1538C137.321 95.3012 138.753 93.6403 139.633 92.0256C140.761 89.9549 140.924 88.0693 140.58 86.27C140.423 85.4518 140.171 84.6928 139.941 84.0448C139.687 83.3359 139.483 82.8153 139.273 82.1688C138.964 81.2159 138.732 80.2213 138.709 79.0281C139.967 77.6113 141.535 76.4317 143.386 74.9514C145.397 73.3419 147.713 71.3887 149.26 68.5673C152.193 63.2198 151.848 55.9374 146.286 44.0789L197.328 45.0404Z" fill="#F15324" stroke="#C5451E" stroke-width="5"/>
<path d="M138.688 89.2367C159.043 107.012 171.328 107.927 194.33 98.2738" stroke="#C5451E" stroke-width="5"/>
<path d="M141.379 77.4398C164.245 84.8031 172.022 81.7573 191.152 82.3741" stroke="#C5451E" stroke-width="5"/>
<path d="M150.161 59.8959C166.675 62.1134 172.154 60.6381 185.857 63.9268" stroke="#C5451E" stroke-width="5"/>
<path d="M131.832 21.8692C159.245 13.9427 184.261 19.0452 206.363 28.3573C208.164 29.5145 209.747 30.7152 210.971 31.9263C212.255 33.1972 213.004 34.3376 213.314 35.2984C213.589 36.1465 213.558 36.934 213.072 37.8362C212.527 38.8481 211.314 40.1583 208.88 41.629L208.091 42.1055L208.029 42.2651C207.601 42.3909 206.936 42.5257 205.992 42.6356C203.887 42.8808 200.877 42.9693 197.184 42.9182C189.824 42.8165 180.095 42.1646 170.229 41.2575C160.372 40.3511 150.429 39.1954 142.659 38.0964C138.771 37.5465 135.45 37.0145 132.966 36.5384C131.722 36.2999 130.715 36.081 129.966 35.8873C129.124 35.6696 128.851 35.5427 128.879 35.5586C127.241 34.6346 125.842 32.5313 125.857 30.1049C125.87 27.8952 127.093 24.7858 131.832 21.8692Z" fill="#F15324" stroke="#C5451E" stroke-width="5"/>
<path d="M156.205 25.6149C173.129 26.6348 173.436 29.801 181.621 33.2905" stroke="#C5451E" stroke-width="3"/>
<path d="M159.911 33.0312C167.938 28.1184 172.524 26.256 181.092 26.8992" stroke="#C5451E" stroke-width="3"/>
<path d="M169.972 27.0003C199.675 -5.72112 240.624 23.1245 244.185 96.0319" stroke="#261C06" stroke-width="3"/>
<path d="M241.985 96.629C243.774 96.629 245.319 97.115 246.369 97.8134C247.434 98.5229 247.81 99.3054 247.81 99.9186C247.81 100.532 247.434 101.314 246.369 102.024C245.319 102.722 243.774 103.208 241.985 103.208C240.197 103.208 238.651 102.722 237.602 102.024C236.537 101.314 236.161 100.532 236.161 99.9186C236.161 99.3054 236.537 98.5229 237.602 97.8134C238.651 97.115 240.197 96.629 241.985 96.629Z" fill="black" stroke="#261C06" stroke-width="3"/>
<path d="M85.1543 294.599L69.269 353.811" stroke="#261C06" stroke-width="5"/>
<path d="M134.98 308.623L123.331 373.317" stroke="#261C06" stroke-width="5"/>
<path d="M178.444 309.173L179.519 379.35" stroke="#261C06" stroke-width="5"/>
<path d="M214.402 303.214L227.11 371.198" stroke="#261C06" stroke-width="5"/>
<path d="M322.471 218.342C322.471 257.402 291.888 289.068 254.164 289.068C216.44 289.068 185.857 257.402 185.857 218.342C185.857 179.281 216.44 147.617 254.164 147.617C291.888 147.617 322.471 179.281 322.471 218.342Z" fill="#5691F7"/>
<path d="M254.164 251.786C272.295 251.786 286.993 236.567 286.993 217.794C286.993 199.021 272.295 183.802 254.164 183.802C236.033 183.802 221.334 199.021 221.334 217.794C221.334 236.567 236.033 251.786 254.164 251.786Z" fill="black"/>
<path d="M314.528 185.859C305.526 183.118 291.54 173.371 255.518 171.538C219.179 170.038 198.566 184.215 194.859 183.118C203.776 164.659 229.244 146.009 255.518 146.933C286.464 148.022 312.038 173.593 314.528 185.859Z" fill="#0F5DE4"/>
<path d="M140.849 210.7C140.849 249.76 110.267 281.425 72.5426 281.425C34.8179 281.425 4.23608 249.76 4.23608 210.7C4.23608 171.639 34.8179 139.974 72.5426 139.974C110.267 139.974 140.849 171.639 140.849 210.7Z" fill="#5691F7"/>
<path d="M72.5426 244.143C90.6739 244.143 105.372 228.925 105.372 210.151C105.372 191.378 90.6739 176.159 72.5426 176.159C54.4114 176.159 39.7131 191.378 39.7131 210.151C39.7131 228.925 54.4114 244.143 72.5426 244.143Z" fill="black"/>
<path d="M132.907 178.217C123.905 175.475 109.918 165.728 73.8972 163.895C37.5578 162.395 16.9442 176.572 13.2377 175.475C22.1546 157.017 47.6223 138.366 73.8972 139.29C104.843 140.379 130.417 165.95 132.907 178.217Z" fill="#0F5DE4"/>
<defs>
<filter id="filter0_d_152_62" x="0.236084" y="283.997" width="38.7114" height="48.571" filterUnits="userSpaceOnUse" color-interpolation-filters="sRGB">
<feFlood flood-opacity="0" result="BackgroundImageFix"/>
<feColorMatrix in="SourceAlpha" type="matrix" values="0 0 0 0 0 0 0 0 0 0 0 0 0 0 0 0 0 0 127 0" result="hardAlpha"/>
<feOffset dy="4"/>
<feGaussianBlur stdDeviation="2"/>
<feComposite in2="hardAlpha" operator="out"/>
<feColorMatrix type="matrix" values="0 0 0 0 0 0 0 0 0 0 0 0 0 0 0 0 0 0 0.25 0"/>
<feBlend mode="normal" in2="BackgroundImageFix" result="effect1_dropShadow_152_62"/>
<feBlend mode="normal" in="SourceGraphic" in2="effect1_dropShadow_152_62" result="shape"/>
</filter>
<filter id="filter1_d_152_62" x="279.816" y="285.094" width="39.7705" height="44.1849" filterUnits="userSpaceOnUse" color-interpolation-filters="sRGB">
<feFlood flood-opacity="0" result="BackgroundImageFix"/>
<feColorMatrix in="SourceAlpha" type="matrix" values="0 0 0 0 0 0 0 0 0 0 0 0 0 0 0 0 0 0 127 0" result="hardAlpha"/>
<feOffset dy="4"/>
<feGaussianBlur stdDeviation="2"/>
<feComposite in2="hardAlpha" operator="out"/>
<feColorMatrix type="matrix" values="0 0 0 0 0 0 0 0 0 0 0 0 0 0 0 0 0 0 0.25 0"/>
<feBlend mode="normal" in2="BackgroundImageFix" result="effect1_dropShadow_152_62"/>
<feBlend mode="normal" in="SourceGraphic" in2="effect1_dropShadow_152_62" result="shape"/>
</filter>
</defs>
</svg>
